<?xml version="1.0" encoding="UTF-8"?>
<svg version="1.1" xmlns="http://www.w3.org/2000/svg" width="1254" height="1254">
<path d="M0 0 C413.82 0 827.64 0 1254 0 C1254 413.82 1254 827.64 1254 1254 C840.18 1254 426.36 1254 0 1254 C0 840.18 0 426.36 0 0 Z " fill="#FCF2E1" transform="translate(0,0)"/>
<path d="M0 0 C0.61359375 0.39960938 1.2271875 0.79921875 1.859375 1.2109375 C17.70526174 13.20438388 29.36518815 40.48890926 35 58.9375 C36.27962009 62.93503316 37.70696603 66.77364767 39.375 70.625 C44.61967779 83.02296922 48.38327893 95.84462416 51.64428711 108.88989258 C52.80173594 113.49896629 54.01301866 118.08150696 55.36083984 122.63867188 C59.09323279 135.28431969 62.06220997 147.94492495 64.625 160.875 C65.0166757 162.81439051 65.40885149 164.75368008 65.80151367 166.69287109 C67.97375843 177.48371461 70.09897384 188.28340294 71.68408203 199.17919922 C73.88490396 213.34241143 81.34078902 222.19658122 90.81518555 232.43066406 C104.38842489 247.12865541 116.25473968 263.52869046 126 281 C126.4031543 281.71736328 126.80630859 282.43472656 127.22167969 283.17382812 C143.02939132 311.53293569 154.69242612 344.31065301 156 377 C156.08427246 377.84353027 156.16854492 378.68706055 156.25537109 379.55615234 C157.96764041 396.78059329 157.96764041 396.78059329 154.81494141 401.93896484 C151.65875165 405.28242933 147.83254058 407.53874867 143.88085938 409.83154297 C140.90956379 411.67741793 138.55218448 413.91551593 136 416.3125 C135.51813232 416.76383301 135.03626465 417.21516602 134.53979492 417.68017578 C133.01853773 419.11191776 131.50945224 420.55582649 130 422 C129.44844238 422.51900879 128.89688477 423.03801758 128.32861328 423.57275391 C115.10353714 436.05916571 103.87393267 450.09138994 95 466 C94.67193359 466.58507324 94.34386719 467.17014648 94.00585938 467.77294922 C83.46035872 486.85264329 78.18995043 507.09781322 75.98706055 528.67041016 C73.57251152 552.12556404 69.15570029 576.41740306 55 596 C52.94535204 595.02530063 51.03781148 594.02593017 49.16015625 592.73828125 C22.7880905 574.81313414 -14.47510752 575.78336833 -44.63671875 580.578125 C-46.40203241 580.91529268 -48.16555985 581.26218464 -49.92578125 581.625 C-52.6349235 582.11478843 -55.25606934 582.14832058 -58 582 C-55.74891788 577.94359459 -52.99643597 574.58041517 -49.9375 571.125 C-29.37774124 547.28431926 -14.28328379 515.80312003 -13 484 C-12.96003906 483.18273437 -12.92007813 482.36546875 -12.87890625 481.5234375 C-12.15109233 452.49650568 -23.86097508 425.42065847 -43.703125 404.47265625 C-46 402 -46 402 -48.08203125 399.3828125 C-60.4883653 383.96964799 -80.98562193 372.68494698 -98.12890625 363.36328125 C-99.0787439 362.84612045 -100.02858154 362.32895966 -101.00720215 361.79612732 C-112.47833771 355.59824336 -124.18159374 349.8698379 -135.89550781 344.14819336 C-154.82638483 334.88560849 -173.56675672 325.00551489 -190.39208984 312.21826172 C-192.03638203 310.97243451 -193.69896422 309.75405894 -195.36328125 308.53515625 C-221.63396215 288.96004477 -244.85386571 260.3670865 -251.63598633 227.56030273 C-252.40591797 222.14496193 -252.36914151 216.71011004 -252.375 211.25 C-252.39949219 210.0640625 -252.42398437 208.878125 -252.44921875 207.65625 C-252.507571 189.83936286 -245.22558642 173.82336746 -233 161 C-224.85075699 153.35243712 -215.49781833 146.95099708 -205 143 C-218.73496417 138.82007956 -232.77413069 138.67579304 -247.01708984 138.73925781 C-249.86447565 138.74996044 -252.71122714 138.73930678 -255.55859375 138.7265625 C-271.17177014 138.71347334 -286.39242196 139.89072436 -301.6875 143.1875 C-302.69167969 143.40253174 -303.69585938 143.61756348 -304.73046875 143.83911133 C-357.28871497 155.47994164 -404.43989077 182.77762222 -443 220 C-443.61794434 220.59603027 -444.23588867 221.19206055 -444.87255859 221.80615234 C-452.80433166 229.49979362 -460.1785888 237.29908629 -467 246 C-468.43659311 247.70909604 -469.8741215 249.41740628 -471.3125 251.125 C-501.09635512 287.73432192 -517.71152621 329.37650563 -526.43359375 375.3125 C-526.57798386 376.06998032 -526.72237396 376.82746063 -526.87113953 377.6078949 C-527.76097302 382.39151967 -528.43782368 387.16671723 -529 392 C-529.66 392 -530.32 392 -531 392 C-531.62850261 371.39865142 -530.96888196 352.15102362 -526 332 C-525.78069824 331.10039551 -525.56139648 330.20079102 -525.33544922 329.27392578 C-514.84132187 287.69831564 -489.50462606 250.19685987 -460.75 218.99609375 C-456.77874654 214.46638278 -457.5572306 209.27734712 -457.80761719 203.49316406 C-458.19762409 198.43891216 -459.02997521 193.44321441 -459.8125 188.4375 C-462.98685534 168.08154058 -464.95229269 147.68294622 -466.1875 127.125 C-466.23038147 126.42478729 -466.27326294 125.72457458 -466.31744385 125.00314331 C-469.8860035 65.65286834 -469.8860035 65.65286834 -456 46 C-451.00888931 40.74961083 -447.42446821 38.78264588 -440.125 38.4375 C-429.43349164 38.29174568 -420.50083031 42.50175062 -411 47 C-410.30358398 47.32081543 -409.60716797 47.64163086 -408.88964844 47.97216797 C-385.18938064 59.04352897 -363.36401273 76.00042148 -342.83569336 92.0144043 C-320.34786803 109.53725018 -300.76250295 118.03634213 -272.1227417 118.96600342 C-267.11850732 119.13051849 -262.11607552 119.3399571 -257.11328125 119.54296875 C-256.13697754 119.58162048 -255.16067383 119.62027222 -254.15478516 119.66009521 C-237.97681982 120.30788883 -222.0622268 121.59240508 -206.0625 124.125 C-185.65249169 127.926231 -185.65249169 127.926231 -166.25390625 122.80078125 C-157.6679829 115.94097074 -150.79331363 107.58038352 -144 99 C-134.57958011 87.34072347 -124.90436332 75.92803049 -114.71484375 64.93359375 C-112.88382881 62.9550438 -111.06252905 60.97132248 -109.25390625 58.97265625 C-101.32984108 50.22697142 -93.2613454 41.57670054 -84.2578125 33.921875 C-82.48196094 32.41025049 -80.73360201 30.87868479 -78.9921875 29.328125 C-59.87729155 12.43712276 -26.26035772 -17.17023389 0 0 Z " fill="#9FA980" transform="translate(889,295)"/>
<path d="M0 0 C0 0.33 0 0.66 0 1 C-6.46694389 2.21995462 -12.85896865 3.13278568 -19.4296875 3.56640625 C-20.66702637 3.64963135 -21.90436523 3.73285645 -23.17919922 3.81860352 C-24.11006348 3.87846436 -25.04092773 3.9383252 -26 4 C-25.23373291 3.96970703 -24.46746582 3.93941406 -23.67797852 3.90820312 C-3.10944182 3.11669576 17.41730686 2.87127152 38 3 C38 3.66 38 4.32 38 5 C31.4 5 24.8 5 18 5 C18 6.32 18 7.64 18 9 C19.32 8.34 20.64 7.68 22 7 C22.33 7.33 22.66 7.66 23 8 C24.34267413 8.08631874 25.68974322 8.10706473 27.03515625 8.09765625 C27.84404297 8.09443359 28.65292969 8.09121094 29.48632812 8.08789062 C30.7615332 8.07532227 30.7615332 8.07532227 32.0625 8.0625 C32.91650391 8.05798828 33.77050781 8.05347656 34.65039062 8.04882812 C36.76695663 8.03700373 38.88348685 8.01906769 41 8 C41 8.66 41 9.32 41 10 C44.3 9.67 47.6 9.34 51 9 C51 9.66 51 10.32 51 11 C51.66 11 52.32 11 53 11 C53 10.34 53 9.68 53 9 C53.66 9 54.32 9 55 9 C55.33 9.66 55.66 10.32 56 11 C58.45996575 11.23903726 60.84673894 11.37012948 63.3125 11.4375 C69.59906468 11.7069242 75.27744572 12.59750871 81.359375 14.30078125 C84.89921519 15.2381058 88.35969806 15.64997097 92 16 C92 16.66 92 17.32 92 18 C82.43 17.67 72.86 17.34 63 17 C63 17.99 63 18.98 63 20 C62.34 20 61.68 20 61 20 C60.67 19.01 60.34 18.02 60 17 C59.67 17.99 59.34 18.98 59 20 C56.98177083 19.96744792 54.96354167 19.93489583 52.9453125 19.90234375 C50.91814596 19.87350758 50.91814596 19.87350758 49 21 C46.6599583 20.71758117 44.32495277 20.38749213 42 20 C42 19.01 42 18.02 42 17 C42.66 17 43.32 17 44 17 C44 16.34 44 15.68 44 15 C38.72 15 33.44 15 28 15 C28 15.66 28 16.32 28 17 C32.29 17 36.58 17 41 17 C41 17.66 41 18.32 41 19 C40.00097656 18.98839844 39.00195312 18.97679687 37.97265625 18.96484375 C36.68230469 18.95582031 35.39195312 18.94679687 34.0625 18.9375 C32.77472656 18.92589844 31.48695313 18.91429687 30.16015625 18.90234375 C27.13701597 18.63467451 27.13701597 18.63467451 26 20 C24.44051458 20.15686249 22.87457332 20.25076639 21.30859375 20.31640625 C19.89223633 20.37924805 19.89223633 20.37924805 18.44726562 20.44335938 C17.45404297 20.48267578 16.46082031 20.52199219 15.4375 20.5625 C14.44041016 20.60568359 13.44332031 20.64886719 12.41601562 20.69335938 C9.9441585 20.79980298 7.4721969 20.90181928 5 21 C5 21.66 5 22.32 5 23 C6.94603274 23.59070014 6.94603274 23.59070014 9 24 C9.33 23.67 9.66 23.34 10 23 C12.33297433 22.95907063 14.66705225 22.95758277 17 23 C16.67 24.32 16.34 25.64 16 27 C17.65 27 19.3 27 21 27 C21 26.01 21 25.02 21 24 C22.65 23.67 24.3 23.34 26 23 C26 23.66 26 24.32 26 25 C27.65 25.33 29.3 25.66 31 26 C31.33 25.34 31.66 24.68 32 24 C32 24.66 32 25.32 32 26 C33.60226955 26.22245393 35.20696767 26.42746669 36.8125 26.625 C37.70582031 26.74101562 38.59914063 26.85703125 39.51953125 26.9765625 C42.25690391 27.23500743 42.25690391 27.23500743 45 25 C46.32 25 47.64 25 49 25 C48.67 25.66 48.34 26.32 48 27 C47.34 26.67 46.68 26.34 46 26 C46 26.66 46 27.32 46 28 C48.64 28 51.28 28 54 28 C54 27.34 54 26.68 54 26 C56.31 26 58.62 26 61 26 C61 26.66 61 27.32 61 28 C61.88042969 28.13277344 62.76085937 28.26554687 63.66796875 28.40234375 C64.82941406 28.57894531 65.99085938 28.75554687 67.1875 28.9375 C68.91033203 29.19853516 68.91033203 29.19853516 70.66796875 29.46484375 C73.46325212 29.91379313 76.22933586 30.42082162 79 31 C79.33 30.34 79.66 29.68 80 29 C80.33 29.66 80.66 30.32 81 31 C83.1522163 31.41655799 85.32390825 31.73508448 87.5 32 C89.67609175 32.26491552 91.8477837 32.58344201 94 33 C94.33 33.66 94.66 34.32 95 35 C94.45287354 34.94465088 93.90574707 34.88930176 93.34204102 34.83227539 C81.23640988 33.61754097 69.15175757 32.60519894 57 32 C57 32.66 57 33.32 57 34 C58.32 34.33 59.64 34.66 61 35 C52.42 35.33 43.84 35.66 35 36 C35 36.33 35 36.66 35 37 C33.35 37 31.7 37 30 37 C30 36.34 30 35.68 30 35 C28.02 35 26.04 35 24 35 C24 35.66 24 36.32 24 37 C22.35 36.67 20.7 36.34 19 36 C18.67 36.99 18.34 37.98 18 39 C16.54077307 38.88590407 15.08259402 38.75834456 13.625 38.625 C12.81289063 38.55539063 12.00078125 38.48578125 11.1640625 38.4140625 C9 38 9 38 7 36 C6.67 37.32 6.34 38.64 6 40 C3.14596025 40.16912828 0.29179998 40.33537163 -2.5625 40.5 C-3.36236328 40.54769531 -4.16222656 40.59539062 -4.98632812 40.64453125 C-9.66718977 40.91200906 -14.31158379 41.05034541 -19 41 C-18.67 41.66 -18.34 42.32 -18 43 C-17.443125 42.91621094 -16.88625 42.83242187 -16.3125 42.74609375 C-11.72438438 42.13382832 -7.74112054 42.01541434 -3.12890625 42.7421875 C0.89672469 43.2296951 4.95180029 43.07465942 9 43 C9 43.66 9 44.32 9 45 C5.89918794 46.03360402 3.56902299 46.17230528 0.3125 46.3125 C-21.42545274 47.75120628 -43.02129843 52.8645056 -63.9140625 58.8515625 C-70.22964909 60.64847211 -76.47752012 62.18469001 -83 63 C-83 63.66 -83 64.32 -83 65 C-83.86987549 65.31638428 -84.73975098 65.63276855 -85.63598633 65.95874023 C-105.97485908 73.38681524 -125.70908253 81.1563126 -144.62890625 91.78515625 C-147 93 -147 93 -149 93 C-148.67 93.66 -148.34 94.32 -148 95 C-147.44570313 94.71125 -146.89140625 94.4225 -146.3203125 94.125 C-145.59585937 93.75375 -144.87140625 93.3825 -144.125 93 C-143.40570313 92.62875 -142.68640625 92.2575 -141.9453125 91.875 C-140 91 -140 91 -138 91 C-138 91.66 -138 92.32 -138 93 C-139.06476563 93.556875 -140.12953125 94.11375 -141.2265625 94.6875 C-150.59638479 99.60717177 -159.85197487 104.67935781 -169 110 C-169 109.01 -169 108.02 -169 107 C-166.03 105.35 -163.06 103.7 -160 102 C-163.60765033 103.31535569 -166.54991462 104.91963438 -169.6875 107.125 C-173.77990431 110 -173.77990431 110 -176 110 C-176 110.66 -176 111.32 -176 112 C-174.68 111.34 -173.36 110.68 -172 110 C-172.625 111.875 -172.625 111.875 -174 114 C-177.125 115.25 -177.125 115.25 -180 116 C-180 116.66 -180 117.32 -180 118 C-180.55034912 118.28552734 -181.10069824 118.57105469 -181.66772461 118.86523438 C-187.41088903 121.93671948 -192.47916268 125.44219345 -197.5625 129.5 C-198.33553467 130.11020996 -199.10856934 130.72041992 -199.9050293 131.34912109 C-202.27584761 133.22554502 -204.63834332 135.11206504 -207 137 C-207.71736328 137.56879883 -208.43472656 138.13759766 -209.17382812 138.72363281 C-217.47890807 145.31108884 -225.47700715 152.11213323 -233.1953125 159.37890625 C-235.38136086 161.42185674 -237.58928543 163.38484802 -239.875 165.3125 C-248.61296751 172.87671068 -256.97594774 181.31109959 -264.421875 190.1484375 C-266.26069039 192.30585952 -268.19478873 194.36148141 -270.125 196.4375 C-275.91453743 202.86378858 -281.07524185 209.75260939 -286.25439453 216.671875 C-288.01317648 219.01757356 -289.7855686 221.3525563 -291.55859375 223.6875 C-298.83115069 233.3342013 -305.43923642 243.1908967 -311.56420898 253.60180664 C-313.28390947 256.47421233 -315.06497084 259.30589788 -316.83984375 262.14453125 C-321.08931258 269.044185 -324.97054168 276.11373809 -328.6875 283.3125 C-329.02905121 283.97373871 -329.37060242 284.63497742 -329.72250366 285.31625366 C-354.8303968 334.21018982 -370.72275011 389.189732 -375 444 C-375.05639648 444.71542969 -375.11279297 445.43085937 -375.17089844 446.16796875 C-378.60283555 492.71234661 -374.55502258 539.02043761 -362 584 C-361.69723145 585.08587402 -361.39446289 586.17174805 -361.08251953 587.29052734 C-351.07088284 622.59360409 -336.2736092 656.74643818 -317 688 C-316.52498047 688.7822998 -316.04996094 689.56459961 -315.56054688 690.37060547 C-309.0477574 701.08152702 -302.08350059 711.28199432 -294.40087891 721.18603516 C-293.07864385 722.89816595 -291.77618667 724.62322279 -290.48046875 726.35546875 C-276.08420616 745.52054765 -259.58538829 764.36887138 -241.36328125 779.97265625 C-239.55195346 781.52650604 -237.7626484 783.09691816 -235.98046875 784.68359375 C-213.45544024 804.58207541 -187.37889714 820.02648515 -159 830 C-157.9157373 830.38986084 -157.9157373 830.38986084 -156.80957031 830.78759766 C-136.74266858 837.96603478 -116.10848481 843.04811424 -95 846 C-94.31115723 846.09764648 -93.62231445 846.19529297 -92.91259766 846.29589844 C-30.02211049 855.06307736 33.65162311 844.37893288 92 820 C93.72790552 819.30933647 95.45696153 818.62153962 97.1875 817.9375 C105.58843466 814.5715626 113.92744736 811.09490104 122.14868164 807.30908203 C124.7152308 806.13074171 127.2883447 804.96844534 129.86328125 803.80859375 C134.38318984 801.75605291 138.87275246 799.64429194 143.3515625 797.50390625 C264.27495265 739.76975405 264.27495265 739.76975405 322 760 C323.34552213 760.64171055 324.68325707 761.30113644 326 762 C324.64383125 765.6618608 322.98783168 768.8376068 320.91015625 772.140625 C320.29624023 773.1203125 319.68232422 774.1 319.04980469 775.109375 C318.39399414 776.14578125 317.73818359 777.1821875 317.0625 778.25 C316.38735352 779.3225 315.71220703 780.395 315.01660156 781.5 C313.01703041 784.6704912 311.01038238 787.83635513 309 791 C308.20601807 792.25006836 308.20601807 792.25006836 307.39599609 793.52539062 C304.30535008 798.37779875 301.17494652 803.20232959 298 808 C297.56800293 808.65339355 297.13600586 809.30678711 296.69091797 809.97998047 C286.75038586 824.92939335 275.98954526 839.21482388 263.61328125 852.23828125 C261.42567316 854.5501481 259.32025084 856.89642848 257.25 859.3125 C251.35894784 866.10218724 244.88125784 872.22792769 238 878 C237.45875488 878.45503906 236.91750977 878.91007812 236.35986328 879.37890625 C221.78240739 891.58074784 206.5744915 902.66202798 190 912 C189.3184082 912.38865234 188.63681641 912.77730469 187.93457031 913.17773438 C139.32671235 940.65655076 82.25881728 952.53201455 26.75 952.3125 C25.8052179 952.31100952 24.86043579 952.30951904 23.88702393 952.3079834 C-75.13614778 952.02985757 -173.66281599 917.35194586 -255 855 C-255.53995605 854.58331055 -256.07991211 854.16662109 -256.63623047 853.73730469 C-271.63383605 842.16301972 -285.81759672 829.77656279 -299.6875 816.875 C-300.6144165 816.01394653 -300.6144165 816.01394653 -301.56005859 815.13549805 C-307.66579429 809.43371039 -313.53976254 803.62169956 -318.9921875 797.2890625 C-320.94313669 795.0648286 -322.94065753 792.88927541 -324.95336914 790.72094727 C-330.55770324 784.67581203 -335.88021096 778.46378146 -341 772 C-341.50370117 771.36884277 -342.00740234 770.73768555 -342.52636719 770.08740234 C-356.73916526 752.24375066 -369.64060961 733.79118509 -381 714 C-381.44859375 713.21850586 -381.8971875 712.43701172 -382.359375 711.63183594 C-391.38103727 695.82402624 -399.31942621 679.5408849 -407.03076172 663.06201172 C-407.84509594 661.32955155 -408.6729323 659.60344699 -409.50390625 657.87890625 C-412.66264778 651.21485281 -414.98592066 644.34956626 -417.23730469 637.33935547 C-418.09804058 634.69928783 -418.98853417 632.07029922 -419.8828125 629.44140625 C-429.54663513 600.98694654 -436.55441907 572.52275676 -440.75 542.75 C-440.90143967 541.69279251 -440.90143967 541.69279251 -441.05593872 540.61422729 C-444.19287733 518.46475514 -445.41311234 496.29674227 -445.375 473.9375 C-445.37478851 472.77589355 -445.37457703 471.61428711 -445.37435913 470.41748047 C-445.3353406 448.7387126 -443.94241496 427.47012558 -441 406 C-440.91041016 405.32890198 -440.82082031 404.65780396 -440.72851562 403.96636963 C-434.87987937 360.23021359 -422.41138453 317.09174151 -404 277 C-403.46648926 275.8342041 -402.93297852 274.6684082 -402.38330078 273.46728516 C-394.53479476 256.40963118 -385.81572942 240.02167309 -376 224 C-375.48195801 223.14728516 -374.96391602 222.29457031 -374.43017578 221.41601562 C-360.97349399 199.33547255 -345.63113351 177.94901622 -328 159 C-326.86986176 157.71282661 -325.74472292 156.42124394 -324.625 155.125 C-317.11637406 146.54127535 -309.36135898 138.26531171 -301.3125 130.1875 C-300.61205566 129.48246338 -299.91161133 128.77742676 -299.18994141 128.05102539 C-294.62196419 123.49647393 -289.88819355 119.20632259 -285 115 C-283.84352985 113.97828292 -282.68853419 112.95489398 -281.53515625 111.9296875 C-272.3545042 103.8274895 -262.83592524 96.28925932 -253 89 C-252.26346191 88.45311523 -251.52692383 87.90623047 -250.76806641 87.34277344 C-240.11595566 79.46414386 -229.25639057 71.98966224 -218 65 C-217.35337402 64.59749023 -216.70674805 64.19498047 -216.04052734 63.78027344 C-187.37150436 46.08548913 -156.75160613 32.11280947 -125 21 C-123.72310303 20.55164795 -123.72310303 20.55164795 -122.42041016 20.09423828 C-83.9982536 6.80012398 -40.73062466 -1.4901448 0 0 Z " fill="#9FA980" transform="translate(593,146)"/>
<path d="M0 0 C0.68187549 47.81870406 -3.42606748 92.70049407 -38.15625 129.15234375 C-50.41193919 141.6376184 -65.03845611 149.90150741 -80.82910156 157.01904297 C-92.61221293 162.41408522 -99.63140448 168.44461778 -105.0625 180.25 C-105.44390137 181.06702393 -105.82530273 181.88404785 -106.21826172 182.72583008 C-110.87838316 192.77907319 -115.30752824 202.93698863 -119.73388672 213.09472656 C-121.23735117 216.54463535 -122.74713891 219.9917503 -124.25732422 223.4387207 C-125.50684346 226.29162565 -126.75364207 229.14571274 -128 232 C-125.58005993 230.0874377 -123.16465613 228.16922761 -120.75 226.25 C-120.06808594 225.71117187 -119.38617187 225.17234375 -118.68359375 224.6171875 C-113.30743236 220.33713668 -109.07472538 216.35658656 -105.375 210.5 C-92.9779103 191.74484408 -77.93427453 177.98017481 -55.59375 172.5234375 C-51.38505407 171.67409224 -47.2884493 171.20166981 -43 171 C-41.85144531 170.93554688 -40.70289063 170.87109375 -39.51953125 170.8046875 C-24.64175368 170.35701114 -10.19177132 173.70340868 4 178 C2.45872649 181.71268094 0.19156766 183.98115698 -2.6875 186.75 C-5.77090104 189.76713884 -8.76141526 192.78141718 -11.5625 196.0625 C-26.36158588 213.15681448 -47.00452711 228.46854538 -70.39648438 230.17480469 C-78.38066317 230.48663843 -86.09633951 230.18554907 -94 229 C-106.27780503 228.27479998 -113.52047644 231.20950757 -123 239 C-134.10770349 248.87912417 -142.34487858 260.83778722 -150.44628906 273.17211914 C-154.69885565 279.62587688 -159.20311359 285.86235278 -163.8203125 292.05859375 C-165.2619876 294.00408004 -166.65682993 295.98524489 -168 298 C-158.1605279 292.81893825 -158.1605279 292.81893825 -149.4375 286 C-136.12506505 273.54406362 -120.62525306 268.19705885 -102.6496582 268.48046875 C-84.86056345 269.20940998 -66.8163938 277.85268228 -53 289 C-53 289.66 -53 290.32 -53 291 C-104.1889597 319.32441383 -104.1889597 319.32441383 -132.97265625 311.29296875 C-137.07201895 310.04896258 -140.9481133 308.3868399 -144.875 306.6875 C-150.88108789 304.13586359 -155.6551932 302.92889726 -162 305 C-172.14124736 309.23271823 -180.15118586 317.06527027 -188.0703125 324.45751953 C-193.19131456 329.22141467 -198.50610456 333.66976662 -204 338 C-204.59731934 338.48049805 -205.19463867 338.96099609 -205.81005859 339.45605469 C-216.94974914 348.40236608 -228.57514413 355.96187767 -241 363 C-241.70560059 363.40702148 -242.41120117 363.81404297 -243.13818359 364.23339844 C-261.57749989 374.81704257 -288.39652356 389 -310 389 C-310 388.34 -310 387.68 -310 387 C-308.90945313 386.40574219 -307.81890625 385.81148437 -306.6953125 385.19921875 C-274.45419214 367.52745871 -244.66880779 347.00013219 -217.4765625 322.23046875 C-216.07798223 320.97086412 -214.67285744 319.71818634 -213.24682617 318.48974609 C-207.9748274 313.94485223 -202.98114276 309.17388373 -198.0625 304.25 C-197.26835693 303.45505127 -196.47421387 302.66010254 -195.65600586 301.84106445 C-190.82335651 296.95773861 -186.2814875 292.03246647 -182.0546875 286.61328125 C-180.1331175 284.16930723 -178.12571875 281.82254254 -176.08178711 279.48071289 C-169.08714743 271.42542569 -162.97671183 262.82772969 -157 254 C-156.55188965 253.34080566 -156.1037793 252.68161133 -155.64208984 252.00244141 C-140.74542299 229.94168653 -128.22665484 206.49357261 -116.703125 182.53369141 C-115.65981054 180.36899337 -114.60728675 178.20866706 -113.5390625 176.05615234 C-108.32785464 165.51727403 -106.32614073 156.93157542 -106.19140625 145.19140625 C-105.41094756 105.55471314 -84.0151333 72.22806958 -57 45 C-54.42437383 42.53976927 -51.75667214 40.25355327 -49 38 C-48.15695312 37.28070312 -47.31390625 36.56140625 -46.4453125 35.8203125 C-39.15501597 29.63640244 -31.60601617 23.83034731 -23.99609375 18.046875 C-16.96435059 12.69846356 -10.10396184 7.22658792 -3.59375 1.25 C-2 0 -2 0 0 0 Z " fill="#9EA980" transform="translate(1092,686)"/>
<path d="M0 0 C27.96893283 5.92043104 54.8196398 41.65513674 69.61328125 63.92578125 C70.51486726 65.32312794 71.41095978 66.72403869 72.30078125 68.12890625 C72.70248535 68.75901611 73.10418945 69.38912598 73.51806641 70.03833008 C79.84212541 80.32207217 79.84212541 80.32207217 79.54541016 86.10913086 C78.37586478 89.41386815 76.97110645 90.05653006 73.92578125 91.73046875 C72.93312256 92.28951904 71.94046387 92.84856934 70.91772461 93.42456055 C69.8478833 94.00761963 68.77804199 94.59067871 67.67578125 95.19140625 C65.46704947 96.43709375 63.26002501 97.68581318 61.0546875 98.9375 C59.96559082 99.55222168 58.87649414 100.16694336 57.75439453 100.80029297 C35.287363 113.6889929 14.53595426 129.86501505 -4.32421875 147.56640625 C-6.6069356 144.14233097 -7.09666514 141.16712231 -7.7265625 137.19921875 C-7.8489328 136.46041473 -7.9713031 135.72161072 -8.09738159 134.9604187 C-8.49454826 132.53878381 -8.87909717 130.11537914 -9.26171875 127.69140625 C-9.3942807 126.86527832 -9.52684265 126.03915039 -9.66342163 125.18798828 C-12.14155899 109.69536815 -13.99151906 94.20178572 -15.32421875 78.56640625 C-15.41848145 77.56448242 -15.51274414 76.56255859 -15.60986328 75.53027344 C-16.37909562 66.78111558 -16.54356316 58.06144593 -16.56445312 49.28417969 C-16.57415056 46.83363774 -16.60529146 44.38394022 -16.63671875 41.93359375 C-16.69104776 33.91583889 -16.35781378 26.15134186 -14.99609375 18.23828125 C-14.87937317 17.55203674 -14.76265259 16.86579224 -14.64239502 16.15875244 C-13.00028221 7.61918212 -9.86096928 -0.50031104 0 0 Z " fill="#FBF2E1" transform="translate(451.32421875,350.43359375)"/>
<path d="M0 0 C7.20431914 -0.48028794 11.32732334 1.58429472 16.70703125 6.26953125 C34.44925361 22.40193807 42.16916881 49.59506615 48.08691406 71.97900391 C48.94842717 75.16117556 49.92966526 78.30489385 50.89453125 81.45703125 C52.64386172 87.5325068 53.72835939 93.63683298 54.66870117 99.87963867 C54.77674072 100.5935376 54.88478027 101.30743652 54.99609375 102.04296875 C55.08584473 102.66606934 55.1755957 103.28916992 55.26806641 103.93115234 C55.64202819 105.923258 56.13455944 107.89250168 56.65087891 109.85253906 C60.83558789 126.38944028 61.15362261 143.71809995 60.98828125 160.67333984 C60.95670485 163.9281761 60.94724215 167.18252442 60.94140625 170.4375 C60.83804136 199.44986496 60.83804136 199.44986496 57.14453125 213.64453125 C56.91056641 214.58296875 56.67660156 215.52140625 56.43554688 216.48828125 C55.86973101 218.7515447 55.29365631 221.01159039 54.70703125 223.26953125 C54.04703125 223.26953125 53.38703125 223.26953125 52.70703125 223.26953125 C52.68515747 221.56083862 52.68515747 221.56083862 52.6628418 219.81762695 C52.30650712 193.86172973 51.37282635 168.09699314 48.70703125 142.26953125 C48.63784485 141.58971191 48.56865845 140.90989258 48.49737549 140.20947266 C42.13815782 73.35941136 42.13815782 73.35941136 10.07470703 16.90942383 C6.09983319 14.15571609 2.07991911 13.53575629 -2.6953125 13.7734375 C-15.25520215 16.17209312 -26.57306105 29.75950003 -34.29296875 39.26953125 C-34.70981934 39.77403809 -35.12666992 40.27854492 -35.55615234 40.79833984 C-43.65141729 50.60438724 -51.11672439 60.77576746 -58.29296875 71.26953125 C-58.78265137 71.9847998 -59.27233398 72.70006836 -59.77685547 73.43701172 C-69.11561349 87.13570425 -77.93623479 101.16968116 -86.359375 115.44921875 C-91.20748172 123.66465603 -96.13895078 131.75965711 -101.60546875 139.58203125 C-102.07283447 140.25717773 -102.5402002 140.93232422 -103.02172852 141.62792969 C-106.31020228 146.24141889 -109.9078684 150.64742294 -114.29296875 154.26953125 C-114.95296875 154.26953125 -115.61296875 154.26953125 -116.29296875 154.26953125 C-115.74277124 148.43433795 -114.06416832 143.68620014 -111.73046875 138.33203125 C-111.37186768 137.49792725 -111.0132666 136.66382324 -110.64379883 135.80444336 C-107.16086908 127.79896018 -103.36533839 119.98999139 -99.29296875 112.26953125 C-98.89239258 111.50560059 -98.49181641 110.74166992 -98.07910156 109.95458984 C-85.3120638 85.75183644 -70.10958355 62.0821421 -52.29296875 41.26953125 C-51.47957031 40.27308594 -50.66617188 39.27664063 -49.828125 38.25 C-20.47717524 2.40702741 -20.47717524 2.40702741 0 0 Z " fill="#F8F1E1" transform="translate(866.29296875,319.73046875)"/>
<path d="M0 0 C6.20228049 2.74034277 13.21311543 5.95082058 17.375 11.5 C18.0625 13.875 18.0625 13.875 17.375 16.5 C11.90718683 23.22439135 4.43575955 25.00863649 -3.75 26.375 C-8.59746713 27.30227598 -12.21016116 28.86638318 -15.625 32.5 C-19.3260836 38.59108223 -20.39216625 45.50782764 -19.625 52.5 C-17.09558688 62.22147933 -10.88995327 69.77991822 -3.625 76.5 C-3.14933594 76.96921875 -2.67367187 77.4384375 -2.18359375 77.921875 C8.53048636 87.93889447 21.13390312 90.85543352 35.3671875 90.63671875 C38.77822191 90.48167173 42.02063091 90.12406867 45.375 89.5 C45.705 90.82 46.035 92.14 46.375 93.5 C36.4500924 99.41677184 26.08831982 99.95612834 14.75390625 97.81640625 C-2.50925357 92.82190263 -16.67322483 81.42766276 -26.625 66.5 C-27.23988281 66.70496094 -27.85476563 66.90992188 -28.48828125 67.12109375 C-38.98955323 70.62151774 -48.23695129 72.60290112 -58.625 67.5 C-62.737554 64.78945305 -65.25422533 61.81819673 -67.625 57.5 C-68.375 53.625 -68.375 53.625 -68.625 50.5 C-65.03541648 51.08360712 -63.29445576 52.45443917 -60.6875 54.9375 C-55.35014464 59.71663655 -51.35280341 60.99858031 -44.19921875 60.90234375 C-40.56470337 60.33427837 -38.14406163 58.75176678 -35.21875 56.59375 C-33.625 55.5 -33.625 55.5 -31.625 55.5 C-31.28488375 52.33402429 -30.95416813 49.1671312 -30.625 46 C-30.52960938 45.113125 -30.43421875 44.22625 -30.3359375 43.3125 C-30.06802347 40.70990654 -29.83321517 38.10802201 -29.625 35.5 C-29.56666992 34.77627197 -29.50833984 34.05254395 -29.44824219 33.30688477 C-29.22424104 28.21085863 -30.48725566 24.88693115 -32.875 20.4375 C-33.193479 19.82753174 -33.51195801 19.21756348 -33.84008789 18.58911133 C-35.45181169 15.52990802 -37.18502564 12.58843512 -39.0625 9.6875 C-41.10954811 5.51152185 -41.7156363 2.05851892 -40.625 -2.5 C-31.57252269 -14.17293127 -11.14701471 -4.45597669 0 0 Z " fill="#9EA980" transform="translate(488.625,732.5)"/>
<path d="M0 0 C3.67885528 0.44082144 5.58892148 2.15878908 8.3125 4.5625 C28.28734039 20.83397582 50.80877768 24.00704452 76 22 C81.53680847 21.22625004 86.69123779 19.74203694 92 18 C94.65886617 17.2988791 97.32862755 16.65288125 100 16 C100.75410156 15.79117188 101.50820313 15.58234375 102.28515625 15.3671875 C106.65823862 14.15618007 110.4645328 13.8110222 115 14 C114.45635208 17.76434997 113.0981736 19.14678084 110.125 21.4375 C102.06069725 27.40916723 92.50745261 30.96344958 83 34 C81.32744141 34.54140625 81.32744141 34.54140625 79.62109375 35.09375 C73.7766294 36.509319 67.79178534 36.33488395 61.81103516 36.31567383 C59.76800411 36.31252772 57.72644522 36.33598318 55.68359375 36.36132812 C44.23605389 36.41900381 34.06065807 34.63448658 23.875 29.3125 C23.19904785 28.96437256 22.5230957 28.61624512 21.82666016 28.25756836 C12.67902361 23.40204918 4.60900888 17.54235541 0 8 C-0.73626433 5.50695305 -0.94522421 3.6292379 -1 1 C-0.67 0.67 -0.34 0.34 0 0 Z " fill="#9EA880" transform="translate(586,697)"/>
<path d="M0 0 C1.67071564 0.00548355 1.67071564 0.00548355 3.37518311 0.01107788 C19.67325759 0.0737684 35.58718524 0.66662721 51.6875 3.375 C53.12979574 3.58488632 54.57248622 3.79208458 56.015625 3.99609375 C74.27809945 6.72837799 92.52177434 11.51394568 109.8125 17.9375 C110.76455322 18.28893066 111.71660645 18.64036133 112.69750977 19.00244141 C119.00549323 21.44492847 125.27932777 24.25537996 130.6875 28.375 C131.0175 29.365 131.3475 30.355 131.6875 31.375 C125.50727472 29.85527247 119.48411024 27.98832651 113.47143555 25.91381836 C92.62985683 18.75102071 71.42255596 14.83897127 49.6875 11.375 C48.90648926 11.24996094 48.12547852 11.12492188 47.32080078 10.99609375 C25.44309776 7.57448813 3.32465428 7.02362037 -18.77416992 6.77410889 C-22.23494933 6.73317561 -25.69558726 6.68250563 -29.15625 6.6328125 C-35.87489506 6.53769291 -42.5936325 6.45279966 -49.3125 6.375 C-48.9825 5.385 -48.6525 4.395 -48.3125 3.375 C-32.14053874 0.82629556 -16.35933648 -0.11793407 0 0 Z " fill="#9EA880" transform="translate(657.3125,792.625)"/>
<path d="M0 0 C7.80272216 -0.21575673 15.23206237 0.34613481 22.9375 1.5625 C24.05576172 1.73885986 25.17402344 1.91521973 26.32617188 2.09692383 C70.63538917 9.44587475 114.60084664 25.84791741 150 54 C150.91523437 54.69738281 151.83046875 55.39476562 152.7734375 56.11328125 C155.12313559 58.10434121 155.67808076 58.99542041 156 62 C151.54117062 60.41122171 147.64928863 58.07245369 143.625 55.625 C103.17516916 31.49656247 60.19338286 16.07020383 14.29638672 5.90136719 C9.4306485 4.82217441 4.68967006 3.72142263 0 2 C0 1.34 0 0.68 0 0 Z " fill="#9EA880" transform="translate(606,816)"/>
<path d="M0 0 C3.06578003 2.8108431 4.87724175 5.39575927 6.6875 9.125 C12.89589502 20.77935556 21.68886179 28.900475 34.375 32.8125 C35.91213689 33.22557424 37.45364293 33.62290591 39 34 C39.60312012 34.17418457 40.20624023 34.34836914 40.82763672 34.52783203 C43.27507643 35.05978847 45.48044984 35.11292409 47.984375 35.09765625 C48.91894531 35.09443359 49.85351562 35.09121094 50.81640625 35.08789062 C52.26853516 35.07532227 52.26853516 35.07532227 53.75 35.0625 C54.73355469 35.05798828 55.71710938 35.05347656 56.73046875 35.04882812 C59.15370791 35.03706483 61.57682273 35.02062684 64 35 C64.495 36.98 64.495 36.98 65 39 C57.87654382 45.88600764 48.82801617 46.50374188 39.39501953 46.41699219 C27.73462242 46.00948439 18.7036562 41.73031377 10 34 C2.7269588 26.19773542 -1.94053725 16.34014759 -2.25 5.625 C-2 2 -2 2 0 0 Z " fill="#9DA77F" transform="translate(412,623)"/>
<path d="M0 0 C1.28849854 -0.00902344 2.57699707 -0.01804687 3.90454102 -0.02734375 C24.8268837 0.03635083 44.81890738 4.26598957 63.75 13.1875 C64.59062988 13.58195313 65.43125977 13.97640625 66.29736328 14.3828125 C72.16322629 17.2834753 77.68265009 20.71442878 82.4375 25.25 C82.9325 26.735 82.9325 26.735 83.4375 28.25 C78.34496757 27.65692557 74.28697307 26.05521106 69.6875 23.9375 C49.18538836 14.63861735 28.84205325 9.48777412 6.4375 7.25 C5.57842041 7.15936279 4.71934082 7.06872559 3.83422852 6.9753418 C-3.84986232 6.20997158 -11.53401437 5.93149955 -19.25 5.6875 C-20.53583984 5.64431641 -21.82167969 5.60113281 -23.14648438 5.55664062 C-26.28507494 5.45163202 -29.42373004 5.34947595 -32.5625 5.25 C-32.2325 4.26 -31.9025 3.27 -31.5625 2.25 C-21.07171487 0.34567596 -10.63710999 0.02810966 0 0 Z " fill="#A0AA82" transform="translate(317.5625,703.75)"/>
<path d="M0 0 C0.77391083 0.00149048 1.54782166 0.00298096 2.34518433 0.0045166 C17.57159413 0.0572924 33.10363218 0.27500781 47 7.3125 C47 8.3025 47 9.2925 47 10.3125 C45.2709226 10.33975341 43.54171824 10.35900987 41.8125 10.375 C40.36810547 10.39240234 40.36810547 10.39240234 38.89453125 10.41015625 C36.12598536 10.31675052 33.70412313 9.87915754 31 9.3125 C-2.65367891 5.23047982 -2.65367891 5.23047982 -35 11.3125 C-36.91289178 11.60882219 -38.83056514 11.87453716 -40.75 12.125 C-47.03744471 13.0411905 -52.94306041 14.62282753 -59.00390625 16.5078125 C-62 17.3125 -62 17.3125 -66 17.3125 C-65 14.3125 -65 14.3125 -63.48193359 13.25439453 C-58.31035737 10.78787114 -53.10206935 8.86239752 -47.625 7.1875 C-46.78646484 6.92743164 -45.94792969 6.66736328 -45.08398438 6.39941406 C-40.23083155 4.91933443 -35.40943039 3.53414463 -30.39306641 2.72094727 C-28.83915774 2.45572698 -27.29076736 2.15483284 -25.75195312 1.81274414 C-17.19308877 -0.01489478 -8.70420582 -0.04120225 0 0 Z " fill="#A1AC84" transform="translate(349,741.6875)"/>
<path d="M0 0 C37.43418993 3.85501143 74.97597406 33.04223595 99.1875 60.5 C101 63 101 63 101 66 C96.76776413 64.60434289 94.25708754 62.63895179 91.0625 59.5625 C84.70304296 53.59894553 77.94737515 48.25906592 71 43 C70.32582031 42.4853418 69.65164063 41.97068359 68.95703125 41.44042969 C48.64821543 26.02112081 24.3690481 11.12301603 0 3 C0 2.01 0 1.02 0 0 Z " fill="#9CA77E" transform="translate(601,836)"/>
<path d="M0 0 C0 1.32 0 2.64 0 4 C-4.49034367 5.23264336 -8.88845464 6.16429081 -13.5 6.8125 C-38.60532418 10.614578 -65.52594859 16.68396572 -87 31 C-87.99 31 -88.98 31 -90 31 C-88.48707217 26.58306306 -85.05289162 24.61633184 -81.3125 22.1875 C-80.64549072 21.75026611 -79.97848145 21.31303223 -79.29125977 20.86254883 C-55.51553182 5.64731065 -27.9859156 -0.72377368 0 0 Z " fill="#9DA980" transform="translate(394,769)"/>
<path d="M0 0 C0 0.66 0 1.32 0 2 C1.65 2.33 3.3 2.66 5 3 C5.33 2.34 5.66 1.68 6 1 C6 1.66 6 2.32 6 3 C7.60226955 3.22245393 9.20696767 3.42746669 10.8125 3.625 C12.15248047 3.79902344 12.15248047 3.79902344 13.51953125 3.9765625 C16.25690391 4.23500743 16.25690391 4.23500743 19 2 C20.32 2 21.64 2 23 2 C22.67 2.66 22.34 3.32 22 4 C21.34 3.67 20.68 3.34 20 3 C20 3.66 20 4.32 20 5 C22.64 5 25.28 5 28 5 C28 4.34 28 3.68 28 3 C30.31 3 32.62 3 35 3 C35 3.66 35 4.32 35 5 C35.88042969 5.13277344 36.76085937 5.26554688 37.66796875 5.40234375 C38.82941406 5.57894531 39.99085938 5.75554687 41.1875 5.9375 C42.33605469 6.11152344 43.48460937 6.28554687 44.66796875 6.46484375 C47.46325212 6.91379313 50.22933586 7.42082162 53 8 C53.33 7.34 53.66 6.68 54 6 C54.495 6.99 54.495 6.99 55 8 C57.1522163 8.41655799 59.32390825 8.73508448 61.5 9 C63.67609175 9.26491552 65.8477837 9.58344201 68 10 C68.495 10.99 68.495 10.99 69 12 C68.45287354 11.94465088 67.90574707 11.88930176 67.34204102 11.83227539 C55.23640988 10.61754097 43.15175757 9.60519894 31 9 C31 9.66 31 10.32 31 11 C32.32 11.33 33.64 11.66 35 12 C26.42 12.33 17.84 12.66 9 13 C9 13.33 9 13.66 9 14 C7.35 14 5.7 14 4 14 C4 13.34 4 12.68 4 12 C2.02 12 0.04 12 -2 12 C-2 12.66 -2 13.32 -2 14 C-3.98 14 -5.96 14 -8 14 C-8.33 13.01 -8.66 12.02 -9 11 C-7.68 11 -6.36 11 -5 11 C-5.825 10.21625 -6.65 9.4325 -7.5 8.625 C-10 6 -10 6 -10 4 C-8.35 4 -6.7 4 -5 4 C-5 3.01 -5 2.02 -5 1 C-2 0 -2 0 0 0 Z " fill="#929D71" transform="translate(619,169)"/>
<path d="M0 0 C5.28 0 10.56 0 16 0 C16 0.66 16 1.32 16 2 C15.34 2 14.68 2 14 2 C14 3.32 14 4.64 14 6 C15.32 6 16.64 6 18 6 C18 6.99 18 7.98 18 9 C18.66 9.33 19.32 9.66 20 10 C17.0916792 12.04368489 14.95258143 13.0889076 11.36328125 12.75390625 C9.4498324 12.37539318 7.5407376 11.97418517 5.63671875 11.55078125 C2.71040827 10.9395075 -0.01797488 10.83880945 -3 11 C-2.67 10.01 -2.34 9.02 -2 8 C-3.65 8.33 -5.3 8.66 -7 9 C-7 9.99 -7 10.98 -7 12 C-8.65 12 -10.3 12 -12 12 C-11.67 10.68 -11.34 9.36 -11 8 C-16.01535052 8.32960216 -16.01535052 8.32960216 -20 11 C-20 10.01 -20 9.02 -20 8 C-20.99 8 -21.98 8 -23 8 C-23 7.34 -23 6.68 -23 6 C-15.98194143 4.89912807 -9.09434233 4.90266908 -2 5 C-1.67 4.34 -1.34 3.68 -1 3 C5.93 3.495 5.93 3.495 13 4 C13 3.34 13 2.68 13 2 C8.71 2 4.42 2 0 2 C0 1.34 0 0.68 0 0 Z " fill="#EBE8D2" transform="translate(621,161)"/>
<path d="M0 0 C0 0.66 0 1.32 0 2 C1.65 2.33 3.3 2.66 5 3 C3.68 3.99 2.36 4.98 1 6 C9.41518047 7.52016163 17.4488728 8.27733386 26 8 C25.4765625 9.953125 25.4765625 9.953125 24 12 C21.33517159 12.46709352 19.04929034 12.69572473 16.375 12.75 C15.66859375 12.77964844 14.9621875 12.80929688 14.234375 12.83984375 C12.49019953 12.91055357 10.74509173 12.95754035 9 13 C9 13.33 9 13.66 9 14 C7.35 14 5.7 14 4 14 C4 13.34 4 12.68 4 12 C2.02 12 0.04 12 -2 12 C-2 12.66 -2 13.32 -2 14 C-3.98 14 -5.96 14 -8 14 C-8.33 13.01 -8.66 12.02 -9 11 C-7.68 11 -6.36 11 -5 11 C-5.825 10.21625 -6.65 9.4325 -7.5 8.625 C-10 6 -10 6 -10 4 C-8.35 4 -6.7 4 -5 4 C-5 3.01 -5 2.02 -5 1 C-2 0 -2 0 0 0 Z " fill="#A4AB83" transform="translate(619,169)"/>
<path d="M0 0 C3.64418467 0.91591807 7.18600586 1.37515681 10.921875 1.734375 C10.921875 2.394375 10.921875 3.054375 10.921875 3.734375 C1.351875 3.404375 -8.218125 3.074375 -18.078125 2.734375 C-18.078125 3.724375 -18.078125 4.714375 -18.078125 5.734375 C-18.738125 5.734375 -19.398125 5.734375 -20.078125 5.734375 C-20.408125 4.744375 -20.738125 3.754375 -21.078125 2.734375 C-21.408125 3.724375 -21.738125 4.714375 -22.078125 5.734375 C-24.09635417 5.70182292 -26.11458333 5.66927083 -28.1328125 5.63671875 C-30.15997904 5.60788258 -30.15997904 5.60788258 -32.078125 6.734375 C-32.078125 5.744375 -32.078125 4.754375 -32.078125 3.734375 C-33.068125 3.734375 -34.058125 3.734375 -35.078125 3.734375 C-35.078125 2.744375 -35.078125 1.754375 -35.078125 0.734375 C-34.11390625 0.68539062 -33.1496875 0.63640625 -32.15625 0.5859375 C-30.89296875 0.51117188 -29.6296875 0.43640625 -28.328125 0.359375 C-27.07515625 0.28976563 -25.8221875 0.22015625 -24.53125 0.1484375 C-7.181201 -1.93199824 -7.181201 -1.93199824 0 0 Z " fill="#BABD9B" transform="translate(674.078125,160.265625)"/>
<path d="M0 0 C2.02503403 0.66918863 2.02503403 0.66918863 4.80761719 -0.55493164 C6.47383334 -0.59368085 8.1415589 -0.59996024 9.80761719 -0.55493164 C9.31261719 -0.14243164 8.81761719 0.27006836 8.30761719 0.69506836 C6.37375627 2.56709174 6.37375627 2.56709174 6.80761719 6.44506836 C6.14761719 6.44506836 5.48761719 6.44506836 4.80761719 6.44506836 C4.80761719 5.78506836 4.80761719 5.12506836 4.80761719 4.44506836 C4.14761719 4.77506836 3.48761719 5.10506836 2.80761719 5.44506836 C0.13525509 5.57922308 -2.5148877 5.48825376 -5.19238281 5.44506836 C-5.19238281 4.78506836 -5.19238281 4.12506836 -5.19238281 3.44506836 C-6.18238281 3.94006836 -6.18238281 3.94006836 -7.19238281 4.44506836 C-9.84760201 4.51729957 -12.47581116 4.53791395 -15.12988281 4.50756836 C-15.85884766 4.50305664 -16.5878125 4.49854492 -17.33886719 4.49389648 C-19.29006678 4.48137733 -21.24123006 4.46349478 -23.19238281 4.44506836 C-24.18238281 4.44506836 -25.17238281 4.44506836 -26.19238281 4.44506836 C-26.85238281 4.44506836 -27.51238281 4.44506836 -28.19238281 4.44506836 C-28.19238281 3.12506836 -28.19238281 1.80506836 -28.19238281 0.44506836 C-23.94276495 0.24812831 -19.69268254 0.06414762 -15.44238281 -0.11743164 C-14.23582031 -0.17350586 -13.02925781 -0.22958008 -11.78613281 -0.28735352 C-10.04589844 -0.35986328 -10.04589844 -0.35986328 -8.27050781 -0.43383789 C-7.20219727 -0.48096924 -6.13388672 -0.52810059 -5.03320312 -0.57666016 C-2.19238281 -0.55493164 -2.19238281 -0.55493164 0 0 Z " fill="#F6F3E6" transform="translate(639.1923828125,150.554931640625)"/>
<path d="M0 0 C1.03930664 0.08507812 1.03930664 0.08507812 2.09960938 0.171875 C3.79648446 0.31230604 5.49215248 0.46719407 7.1875 0.625 C7.6825 2.11 7.6825 2.11 8.1875 3.625 C14.4575 3.625 20.7275 3.625 27.1875 3.625 C27.1875 3.955 27.1875 4.285 27.1875 4.625 C19.2675 4.625 11.3475 4.625 3.1875 4.625 C3.1875 5.285 3.1875 5.945 3.1875 6.625 C-12.6525 7.12 -12.6525 7.12 -28.8125 7.625 C-28.4825 6.965 -28.1525 6.305 -27.8125 5.625 C-24.7578125 5.24609375 -24.7578125 5.24609375 -20.9375 5.0625 C-15.78443974 4.82968158 -15.78443974 4.82968158 -10.8125 3.625 C-11.4725 2.965 -12.1325 2.305 -12.8125 1.625 C-8.45953089 -0.58952021 -4.73245366 -0.45286638 0 0 Z " fill="#EEEDDF" transform="translate(594.8125,143.375)"/>
<path d="M0 0 C1.35444466 0.00212242 1.35444466 0.00212242 2.73625183 0.00428772 C5.60935838 0.00986802 8.48238591 0.02241691 11.35546875 0.03515625 C13.30794158 0.0401738 15.26041564 0.04473626 17.21289062 0.04882812 C21.9896136 0.059831 26.76627779 0.07708207 31.54296875 0.09765625 C31.54296875 0.42765625 31.54296875 0.75765625 31.54296875 1.09765625 C25.27296875 1.42765625 19.00296875 1.75765625 12.54296875 2.09765625 C14.85296875 2.42765625 17.16296875 2.75765625 19.54296875 3.09765625 C19.54296875 3.42765625 19.54296875 3.75765625 19.54296875 4.09765625 C7.99296875 4.09765625 -3.55703125 4.09765625 -15.45703125 4.09765625 C-15.12703125 3.10765625 -14.79703125 2.11765625 -14.45703125 1.09765625 C-9.64304344 -0.14786074 -4.93356238 -0.02923419 0 0 Z " fill="#97A276" transform="translate(300.45703125,704.90234375)"/>
<path d="M0 0 C3 1 3 1 6 3 C7.65549531 3.38499891 9.3222433 3.72793135 11 4 C10.67 5.65 10.34 7.3 10 9 C7.66705225 9.04241723 5.33297433 9.04092937 3 9 C2.67 8.67 2.34 8.34 2 8 C0.33401319 7.95240038 -1.3337447 7.9629721 -3 8 C-6.63043624 8.04226899 -10.09164706 7.93326332 -13.6875 7.4375 C-17.98255045 6.8792985 -21.73350141 7.30184569 -26 8 C-26 7.01 -26 6.02 -26 5 C-25.11699219 4.93941406 -24.23398437 4.87882813 -23.32421875 4.81640625 C-15.8735423 4.29621939 -8.43473264 3.71312742 -1 3 C-0.67 2.01 -0.34 1.02 0 0 Z " fill="#F1EFDB" transform="translate(600,182)"/>
<path d="M0 0 C1.87751953 0.00676758 1.87751953 0.00676758 3.79296875 0.01367188 C6.86202941 0.02538585 9.93098907 0.04178927 13 0.0625 C12.67 1.0525 12.34 2.0425 12 3.0625 C6.06 3.3925 0.12 3.7225 -6 4.0625 C-6 5.0525 -6 6.0425 -6 7.0625 C-7.65 7.0625 -9.3 7.0625 -11 7.0625 C-10.67 5.7425 -10.34 4.4225 -10 3.0625 C-15.01535052 3.39210216 -15.01535052 3.39210216 -19 6.0625 C-19 5.0725 -19 4.0825 -19 3.0625 C-19.99 3.0625 -20.98 3.0625 -22 3.0625 C-22 2.4025 -22 1.7425 -22 1.0625 C-14.65939989 -0.10282027 -7.42007939 -0.0509298 0 0 Z " fill="#F7F6E9" transform="translate(620,165.9375)"/>
<path d="M0 0 C1.0859697 0.00212242 1.0859697 0.00212242 2.19387817 0.00428772 C4.48606657 0.0098455 6.77815407 0.02238992 9.0703125 0.03515625 C10.63281108 0.04017672 12.19531121 0.04473866 13.7578125 0.04882812 C17.57035085 0.05980106 21.38281462 0.07703615 25.1953125 0.09765625 C25.6903125 1.08765625 25.6903125 1.08765625 26.1953125 2.09765625 C23.63469484 2.5159005 21.07447685 2.90763991 18.5078125 3.28515625 C17.78658203 3.40568359 17.06535156 3.52621094 16.32226562 3.65039062 C12.66825158 4.16762549 10.54075712 4.26345179 7.17578125 2.6484375 C6.52222656 2.13667969 5.86867188 1.62492188 5.1953125 1.09765625 C5.1953125 2.08765625 5.1953125 3.07765625 5.1953125 4.09765625 C3.9165625 4.24203125 2.6378125 4.38640625 1.3203125 4.53515625 C-1.06161644 4.80408371 -2.64921441 5.01991971 -4.8046875 6.09765625 C-5.7946875 5.43765625 -6.7846875 4.77765625 -7.8046875 4.09765625 C-7.4746875 3.76765625 -7.1446875 3.43765625 -6.8046875 3.09765625 C-9.7746875 3.09765625 -12.7446875 3.09765625 -15.8046875 3.09765625 C-11.7554305 -0.95160075 -5.42660685 -0.04054075 0 0 Z " fill="#9BA57A" transform="translate(581.8046875,149.90234375)"/>
<path d="M0 0 C0 0.66 0 1.32 0 2 C-1.59714844 2.8353125 -1.59714844 2.8353125 -3.2265625 3.6875 C-12.59638479 8.60717177 -21.85197487 13.67935781 -31 19 C-31 18.01 -31 17.02 -31 16 C-28.03 14.35 -25.06 12.7 -22 11 C-22.33 10.34 -22.66 9.68 -23 9 C-21.40377344 7.96679519 -19.79770894 6.94877571 -18.1875 5.9375 C-17.29417969 5.36902344 -16.40085937 4.80054688 -15.48046875 4.21484375 C-13 3 -13 3 -10 4 C-7.96566961 3.24812143 -7.96566961 3.24812143 -5.9375 2.0625 C-2.18305085 0 -2.18305085 0 0 0 Z " fill="#E4E6D4" transform="translate(455,237)"/>
<path d="M0 0 C0 0.66 0 1.32 0 2 C-0.99 2.495 -0.99 2.495 -2 3 C-2.33 3.99 -2.66 4.98 -3 6 C-4.75 7.140625 -4.75 7.140625 -7 8.25 C-11.3854047 10.54744928 -15.0660951 13.28112758 -18.859375 16.44921875 C-21.15514321 18.11239389 -23.35639532 19.00593519 -26 20 C-27.36365283 20.95824253 -28.70794169 21.94721175 -30 23 C-30.66 22.67 -31.32 22.34 -32 22 C-3.6397862 0 -3.6397862 0 0 0 Z " fill="#C2CAAF" transform="translate(416,258)"/>
<path d="M0 0 C-2.56062245 2.950475 -5.46671457 4.44996218 -8.9375 6.1875 C-9.97777344 6.71730469 -11.01804687 7.24710938 -12.08984375 7.79296875 C-15 9 -15 9 -19 9 C-19 9.66 -19 10.32 -19 11 C-20.41478135 11.64995297 -21.83191487 12.29478722 -23.25 12.9375 C-24.03890625 13.29714844 -24.8278125 13.65679687 -25.640625 14.02734375 C-27.75823698 14.90033279 -29.76669362 15.51338508 -32 16 C-30.62514832 11.87544495 -27.91923796 11.04781266 -24.25 9.1875 C-23.58129883 8.84146729 -22.91259766 8.49543457 -22.22363281 8.13891602 C-20.15609082 7.07804332 -18.08006186 6.03608394 -16 5 C-15.04287109 4.51950195 -15.04287109 4.51950195 -14.06640625 4.02929688 C-3.57807864 -1.19269288 -3.57807864 -1.19269288 0 0 Z " fill="#F6F6EA" transform="translate(475,226)"/>
<path d="M0 0 C3.30908371 -0.06618167 6.42641246 -0.10671396 9.6875 0.5 C14.7770326 1.26823134 19.86249827 1.07481799 25 1 C24.34 2.32 23.68 3.64 23 5 C14.585 5.495 14.585 5.495 6 6 C6 5.01 6 4.02 6 3 C3.03 2.505 3.03 2.505 0 2 C0 1.34 0 0.68 0 0 Z " fill="#CACDB0" transform="translate(620,176)"/>
<path d="M0 0 C1.2684375 0.0309375 1.2684375 0.0309375 2.5625 0.0625 C3.2225 0.0625 3.8825 0.0625 4.5625 0.0625 C6.89583333 0.0625 9.22916667 0.0625 11.5625 0.0625 C10.828125 2.0234375 10.828125 2.0234375 9.5625 4.0625 C7.609375 4.6015625 7.609375 4.6015625 5.3125 4.6875 C2.25608198 4.88405421 0.14576523 5.20141159 -2.8125 6.1875 C-5.4375 7.0625 -5.4375 7.0625 -8.4375 6.0625 C-8.4375 5.4025 -8.4375 4.7425 -8.4375 4.0625 C-6.80118108 3.01357762 -5.13264137 2.01343297 -3.4375 1.0625 C-2.4375 0.0625 -2.4375 0.0625 0 0 Z " fill="#B0B795" transform="translate(598.4375,168.9375)"/>
<path d="M0 0 C0 0.33 0 0.66 0 1 C-9.41662989 2.90526677 -18.68367526 3.4114759 -28.25 3.625 C-29.6888226 3.66329936 -31.12762521 3.70235739 -32.56640625 3.7421875 C-36.04408495 3.83684361 -39.52191852 3.92133063 -43 4 C-43 3.67 -43 3.34 -43 3 C-28.62653343 0.33249179 -14.56975193 -0.14716921 0 0 Z " fill="#93A174" transform="translate(593,146)"/>
<path d="M0 0 C5.11556793 1.16094236 10.09633484 2.10338348 15.3125 2.625 C15.3125 3.285 15.3125 3.945 15.3125 4.625 C11.93722444 4.48515045 8.56235869 4.33704731 5.1875 4.1875 C4.23617187 4.14818359 3.28484375 4.10886719 2.3046875 4.06835938 C-2.43378987 3.85446977 -7.02344301 3.55938179 -11.6875 2.625 C-8.27571884 -2.49267175 -5.46025001 -1.28684811 0 0 Z " fill="#9CA57C" transform="translate(669.6875,159.375)"/>
<path d="M0 0 C2.59269983 0.01747888 5.0525154 0.13768592 7.625 0.375 C8.33140625 0.43171875 9.0378125 0.4884375 9.765625 0.546875 C11.51121361 0.68840921 13.25573673 0.84297387 15 1 C14.67 2.32 14.34 3.64 14 5 C10.52791618 5.86802096 8.41323695 5.9308828 5 5 C3.00036972 4.96154557 0.99948367 4.95455719 -1 5 C-1.33 4.01 -1.66 3.02 -2 2 C-1.34 1.34 -0.68 0.68 0 0 Z " fill="#E9E4CD" transform="translate(674,179)"/>
<path d="M0 0 C1.03930664 0.08507812 1.03930664 0.08507812 2.09960938 0.171875 C3.79648446 0.31230604 5.49215248 0.46719407 7.1875 0.625 C7.1875 1.615 7.1875 2.605 7.1875 3.625 C3.10734513 4.53170108 -0.89736395 4.77487654 -5.0625 4.875 C-6.09890625 4.90078125 -7.1353125 4.9265625 -8.203125 4.953125 C-9.06421875 4.84484375 -9.9253125 4.7365625 -10.8125 4.625 C-11.4725 3.635 -12.1325 2.645 -12.8125 1.625 C-8.45953089 -0.58952021 -4.73245366 -0.45286638 0 0 Z " fill="#D1D7BA" transform="translate(594.8125,143.375)"/>
<path d="M0 0 C0.82693359 0.00451172 1.65386719 0.00902344 2.50585938 0.01367188 C4.52477146 0.02534189 6.54364574 0.04327282 8.5625 0.0625 C5.90698585 2.88493218 4.5035819 3.71979723 0.5625 4.0625 C-1.65885243 3.84163895 -3.86524751 3.5472239 -6.078125 3.25390625 C-9.65395416 2.96381415 -12.9049113 3.48444003 -16.4375 4.0625 C-16.4375 3.0725 -16.4375 2.0825 -16.4375 1.0625 C-10.91041389 0.12029874 -5.59991648 -0.05866149 0 0 Z " fill="#F7F6E9" transform="translate(590.4375,185.9375)"/>
<path d="M0 0 C0.66 0.66 1.32 1.32 2 2 C5.36440569 2.63000575 8.73197518 3.02078994 12.12890625 3.4375 C13.07636719 3.623125 14.02382813 3.80875 15 4 C15.495 4.99 15.495 4.99 16 6 C14.69289063 5.855625 13.38578125 5.71125 12.0390625 5.5625 C0.30697495 4.32405779 -11.20637478 3.74079945 -23 4 C-23 3.34 -23 2.68 -23 2 C-20.10450497 1.8045616 -17.20891002 1.61838605 -14.3125 1.4375 C-13.49587891 1.38142578 -12.67925781 1.32535156 -11.83789062 1.26757812 C-7.70485877 1.01658429 -4.04175718 0.88872257 0 2 C0 1.34 0 0.68 0 0 Z " fill="#AAB28B" transform="translate(672,175)"/>
<path d="M0 0 C9.65665194 -0.35473415 20.2363273 -0.38183635 29 4 C24.05 4 19.1 4 14 4 C14 3.67 14 3.34 14 3 C9.71 3 5.42 3 1 3 C0.67 2.01 0.34 1.02 0 0 Z " fill="#9DA87E" transform="translate(606,816)"/>
<path d="M0 0 C2.37507855 -0.02719556 4.74983964 -0.04693247 7.125 -0.0625 C8.12273438 -0.07506836 8.12273438 -0.07506836 9.140625 -0.08789062 C13.20681354 -0.10782292 17.0120092 0.21109839 21 1 C21 1.33 21 1.66 21 2 C16.38 2 11.76 2 7 2 C8 4.5 8 4.5 12 6 C8.37 6 4.74 6 1 6 C1.66 4.68 2.32 3.36 3 2 C2.01 2 1.02 2 0 2 C0 1.34 0 0.68 0 0 Z " fill="#939A6D" transform="translate(642,175)"/>
<path d="M0 0 C-0.33 0.66 -0.66 1.32 -1 2 C-1.66 1.67 -2.32 1.34 -3 1 C-3 1.66 -3 2.32 -3 3 C-0.36 3 2.28 3 5 3 C5 2.34 5 1.68 5 1 C7.31 1 9.62 1 12 1 C12 1.66 12 2.32 12 3 C9.11788698 3.96070434 7.30149956 4.10581883 4.3125 4.0625 C3.10013672 4.04896484 3.10013672 4.04896484 1.86328125 4.03515625 C0.94095703 4.01775391 0.94095703 4.01775391 0 4 C0 4.66 0 5.32 0 6 C-2.64 6 -5.28 6 -8 6 C-7.6875 4.125 -7.6875 4.125 -7 2 C-4 0 -4 0 0 0 Z " fill="#A6AC85" transform="translate(642,171)"/>
<path d="M0 0 C1.17433594 0.15339844 2.34867188 0.30679688 3.55859375 0.46484375 C10.37334588 1.22203843 17.21322356 1.35658287 24.0625 1.5625 C25.41863016 1.60579628 26.77475011 1.64941366 28.13085938 1.69335938 C31.42048671 1.7987211 34.71018059 1.90084952 38 2 C38 2.33 38 2.66 38 3 C25.13 3 12.26 3 -1 3 C-0.67 2.01 -0.34 1.02 0 0 Z " fill="#A9B490" transform="translate(609,796)"/>
<path d="M0 0 C-0.66 1.98 -1.32 3.96 -2 6 C-1.01 6.66 -0.02 7.32 1 8 C-6.38461538 9.35384615 -6.38461538 9.35384615 -9.5 7.5625 C-9.995 7.046875 -10.49 6.53125 -11 6 C-10.01 5.34 -9.02 4.68 -8 4 C-8.33 3.34 -8.66 2.68 -9 2 C-2.25 0 -2.25 0 0 0 Z " fill="#B6BD9D" transform="translate(572,187)"/>
<path d="M0 0 C0.33 0.99 0.66 1.98 1 3 C-6.26 3 -13.52 3 -21 3 C-17.67184091 0.78122727 -16.10527073 0.64111273 -12.1875 0.375 C-11.17042969 0.30023438 -10.15335938 0.22546875 -9.10546875 0.1484375 C-6.06470669 0.0030929 -3.04369977 -0.02729776 0 0 Z " fill="#D5D7C3" transform="translate(594,167)"/>
<path d="M0 0 C7.26 0 14.52 0 22 0 C21.01 1.485 21.01 1.485 20 3 C17.67182036 3.36760731 15.3381615 3.70241581 13 4 C12.67 4.66 12.34 5.32 12 6 C11.34 5.01 10.68 4.02 10 3 C10.99 2.67 11.98 2.34 13 2 C8.71 1.67 4.42 1.34 0 1 C0 0.67 0 0.34 0 0 Z " fill="#929D71" transform="translate(573,170)"/>
<path d="M0 0 C1.32 0 2.64 0 4 0 C3.85764543 1.72945653 3.71095618 3.45855654 3.5625 5.1875 C3.48128906 6.15042969 3.40007812 7.11335937 3.31640625 8.10546875 C3.02333849 10.78649602 2.57296246 13.3662986 2 16 C-0.14336161 12.5233662 -0.21277626 9.78770805 -0.125 5.75 C-0.10695313 4.67234375 -0.08890625 3.5946875 -0.0703125 2.484375 C-0.04710937 1.66453125 -0.02390625 0.8446875 0 0 Z " fill="#A5B189" transform="translate(359,663)"/>
<path d="M0 0 C5.61 0 11.22 0 17 0 C17.33 0.66 17.66 1.32 18 2 C15.37634644 2.38846807 12.75209144 2.76124888 10.125 3.125 C9.37863281 3.23714844 8.63226562 3.34929687 7.86328125 3.46484375 C5.91840803 3.72766446 3.95834962 3.8716515 2 4 C1.34 3.34 0.68 2.68 0 2 C0 1.34 0 0.68 0 0 Z " fill="#95A173" transform="translate(590,150)"/>
<path d="M0 0 C0 0.33 0 0.66 0 1 C-1.98 1.33 -3.96 1.66 -6 2 C-2.7 2.33 0.6 2.66 4 3 C4 3.33 4 3.66 4 4 C-1.94 4 -7.88 4 -14 4 C-13.67 3.01 -13.34 2.02 -13 1 C-8.59085217 -0.10228696 -4.51617599 -0.07654536 0 0 Z " fill="#A3AE85" transform="translate(299,705)"/>
<path d="M0 0 C1.0725 0.0825 2.145 0.165 3.25 0.25 C2.755 0.6625 2.26 1.075 1.75 1.5 C-0.18386092 3.37202338 -0.18386092 3.37202338 0.25 7.25 C-0.41 7.25 -1.07 7.25 -1.75 7.25 C-1.75 6.59 -1.75 5.93 -1.75 5.25 C-2.74 5.745 -2.74 5.745 -3.75 6.25 C-6.4223621 6.38415472 -9.07250488 6.29318541 -11.75 6.25 C-11.1725 6.0025 -10.595 5.755 -10 5.5 C-7.62146965 4.35032024 -7.62146965 4.35032024 -5.9375 2.125 C-3.75 0.25 -3.75 0.25 0 0 Z " fill="#E7E4CE" transform="translate(645.75,149.75)"/>
<path d="M0 0 C4.29 0.33 8.58 0.66 13 1 C13 1.99 13 2.98 13 4 C10.98177083 3.96744792 8.96354167 3.93489583 6.9453125 3.90234375 C4.91814596 3.87350758 4.91814596 3.87350758 3 5 C3 4.01 3 3.02 3 2 C2.01 2 1.02 2 0 2 C0 1.34 0 0.68 0 0 Z " fill="#D0D0B8" transform="translate(639,162)"/>
<path d="M0 0 C0.99 0.99 1.98 1.98 3 3 C-2.61 3 -8.22 3 -14 3 C-14 2.34 -14 1.68 -14 1 C-4.03125 -0.375 -4.03125 -0.375 0 0 Z " fill="#E1E2D0" transform="translate(607,152)"/>
<path d="M0 0 C0 0.66 0 1.32 0 2 C-2.413762 2.69951063 -4.83010234 3.38483919 -7.25 4.0625 C-7.93191406 4.26166016 -8.61382813 4.46082031 -9.31640625 4.66601562 C-15.58342161 6.40009269 -15.58342161 6.40009269 -19 5 C-15.58179934 2.72119956 -12.94790972 2.19615938 -8.9375 1.375 C-7.68839844 1.11460937 -6.43929687 0.85421875 -5.15234375 0.5859375 C-2 0 -2 0 0 0 Z " fill="#9FAB83" transform="translate(551,203)"/>
<path d="M0 0 C3.63 0 7.26 0 11 0 C10.01 0.66 9.02 1.32 8 2 C8 2.66 8 3.32 8 4 C4.04 4 0.08 4 -4 4 C-4 3.67 -4 3.34 -4 3 C-2.35 3 -0.7 3 1 3 C0.67 2.01 0.34 1.02 0 0 Z " fill="#FBFAF3" transform="translate(627,181)"/>
<path d="M0 0 C0.99 0.33 1.98 0.66 3 1 C2.278125 1.39832031 1.55625 1.79664063 0.8125 2.20703125 C-0.115625 2.73683594 -1.04375 3.26664063 -2 3.8125 C-2.928125 4.33457031 -3.85625 4.85664063 -4.8125 5.39453125 C-5.534375 5.92433594 -6.25625 6.45414063 -7 7 C-7 7.99 -7 8.98 -7 10 C-9.31 10.33 -11.62 10.66 -14 11 C-14 10.34 -14 9.68 -14 9 C-11.75932274 7.33355179 -9.53679198 5.81002898 -7.1875 4.3125 C-6.22360352 3.66958008 -6.22360352 3.66958008 -5.24023438 3.01367188 C-3.54576761 1.92324301 -1.77548099 0.95284835 0 0 Z " fill="#EDEFDF" transform="translate(431,247)"/>
<path d="M0 0 C0 0.66 0 1.32 0 2 C-2.45570175 3.33838733 -4.91429916 4.67086232 -7.375 6 C-8.42300781 6.57234375 -8.42300781 6.57234375 -9.4921875 7.15625 C-14.7734375 10 -14.7734375 10 -17 10 C-16 7 -16 7 -13.85546875 5.68359375 C-12.97503906 5.27238281 -12.09460938 4.86117187 -11.1875 4.4375 C-10.31480469 4.02371094 -9.44210937 3.60992187 -8.54296875 3.18359375 C-7.70378906 2.79300781 -6.86460937 2.40242187 -6 2 C-5.27425781 1.61972656 -4.54851562 1.23945313 -3.80078125 0.84765625 C-2 0 -2 0 0 0 Z " fill="#A3B087" transform="translate(455,237)"/>
<path d="M0 0 C2.31 0 4.62 0 7 0 C6.5 1.9375 6.5 1.9375 5 4 C2.30341548 4.68790422 -0.2017019 4.81946464 -3 5 C-3 4.34 -3 3.68 -3 3 C-2.34 3 -1.68 3 -1 3 C-0.67 2.01 -0.34 1.02 0 0 Z " fill="#C8CEB3" transform="translate(603,169)"/>
<path d="M0 0 C-0.625 2.4375 -0.625 2.4375 -2 5 C-5.125 5.8125 -5.125 5.8125 -8 6 C-7.75 3.625 -7.75 3.625 -7 1 C-4.12732844 -1.10662581 -3.46720491 -1.15573497 0 0 Z " fill="#E1E2CF" transform="translate(481,223)"/>
<path d="M0 0 C3.625 0.375 3.625 0.375 7 1 C6.34 2.32 5.68 3.64 5 5 C3.02 5 1.04 5 -1 5 C-1.33 4.01 -1.66 3.02 -2 2 C-1.34 1.34 -0.68 0.68 0 0 Z " fill="#ECEAD8" transform="translate(674,179)"/>
<path d="M0 0 C-0.66 1.65 -1.32 3.3 -2 5 C-3.98 4.34 -5.96 3.68 -8 3 C-8 2.34 -8 1.68 -8 1 C-8.66 0.67 -9.32 0.34 -10 0 C-6.30458414 -0.95024979 -3.69541586 -0.95024979 0 0 Z " fill="#9CA67A" transform="translate(635,174)"/>
<path d="M0 0 C4.29 0 8.58 0 13 0 C13 0.66 13 1.32 13 2 C10.03 1.505 10.03 1.505 7 1 C6.67 1.66 6.34 2.32 6 3 C3.69 3 1.38 3 -1 3 C-0.67 2.01 -0.34 1.02 0 0 Z " fill="#DBDABE" transform="translate(619,169)"/>
<path d="M0 0 C0.33 0.66 0.66 1.32 1 2 C3.64 2 6.28 2 9 2 C9 2.66 9 3.32 9 4 C3.72 4 -1.56 4 -7 4 C-3 2 -3 2 0 2 C0 1.34 0 0.68 0 0 Z " fill="#99A27A" transform="translate(607,162)"/>
<path d="M0 0 C0.33 0.99 0.66 1.98 1 3 C0.67 3.66 0.34 4.32 0 5 C0.66 5.33 1.32 5.66 2 6 C-3.75 10 -3.75 10 -6 10 C-4.34832443 6.4213696 -2.21713508 3.25179812 0 0 Z " fill="#EFEEDF" transform="translate(930,974)"/>
<path d="M0 0 C2.51239382 3.76859072 3.12663199 6.26239249 3.0625 10.6875 C3.05347656 11.49574219 3.04445312 12.30398438 3.03515625 13.13671875 C3.02355469 13.75160156 3.01195312 14.36648438 3 15 C2.01 15 1.02 15 0 15 C0 10.05 0 5.1 0 0 Z " fill="#A4AE88" transform="translate(149,647)"/>
<path d="M0 0 C-1 3 -1 3 -3.72265625 4.60546875 C-4.82480469 5.12753906 -5.92695313 5.64960938 -7.0625 6.1875 C-8.16722656 6.71730469 -9.27195312 7.24710938 -10.41015625 7.79296875 C-11.26480469 8.19128906 -12.11945313 8.58960938 -13 9 C-11.73809862 5.21429586 -10.45144185 4.78168429 -7.0625 2.8125 C-6.16660156 2.28269531 -5.27070313 1.75289062 -4.34765625 1.20703125 C-2 0 -2 0 0 0 Z " fill="#99A67E" transform="translate(436,247)"/>
<path d="M0 0 C2.64 0 5.28 0 8 0 C7.67 1.32 7.34 2.64 7 4 C4.36 3.67 1.72 3.34 -1 3 C-0.67 2.01 -0.34 1.02 0 0 Z " fill="#C5C9AF" transform="translate(572,173)"/>
<path d="M0 0 C0.33 0.99 0.66 1.98 1 3 C-1.64 5.31 -4.28 7.62 -7 10 C-7.66 9.67 -8.32 9.34 -9 9 C-6.03 6.03 -3.06 3.06 0 0 Z " fill="#F2EEDB" transform="translate(968,925)"/>
<path d="M0 0 C2.31 1.65 4.62 3.3 7 5 C6.01 5.66 5.02 6.32 4 7 C0.535 5.02 0.535 5.02 -3 3 C-2.01 2.01 -1.02 1.02 0 0 Z " fill="#A5AE86" transform="translate(748,866)"/>
<path d="M0 0 C5.94 0 11.88 0 18 0 C18.33 0.66 18.66 1.32 19 2 C17.02 2.33 15.04 2.66 13 3 C13 2.67 13 2.34 13 2 C8.71 1.67 4.42 1.34 0 1 C0 0.67 0 0.34 0 0 Z " fill="#A7B186" transform="translate(375,771)"/>
<path d="M0 0 C7.75 0.875 7.75 0.875 10 2 C10 2.66 10 3.32 10 4 C7.03 4 4.06 4 1 4 C1.33 3.34 1.66 2.68 2 2 C1.34 1.34 0.68 0.68 0 0 Z " fill="#949F74" transform="translate(386,747)"/>
<path d="M0 0 C0.66 0 1.32 0 2 0 C2.36552803 1.41377782 2.71695495 2.83120576 3.0625 4.25 C3.25972656 5.03890625 3.45695313 5.8278125 3.66015625 6.640625 C4.01497267 9.10394822 3.76877544 10.65604132 3 13 C3 12.01 3 11.02 3 10 C2.34 10 1.68 10 1 10 C0.67 6.7 0.34 3.4 0 0 Z " fill="#AAB390" transform="translate(954,469)"/>
<path d="M0 0 C1.58294782 -0.05437607 3.16644256 -0.09296271 4.75 -0.125 C5.63171875 -0.14820313 6.5134375 -0.17140625 7.421875 -0.1953125 C10.1135858 0.00860498 11.69904974 0.63448279 14 2 C12.35 2 10.7 2 9 2 C8.67 2.99 8.34 3.98 8 5 C7.13375 4.319375 7.13375 4.319375 6.25 3.625 C4.21528758 2.15548547 2.25097471 1.08765585 0 0 Z " fill="#FDFBF1" transform="translate(675,164)"/>
<path d="M0 0 C0.99 0.33 1.98 0.66 3 1 C3 1.66 3 2.32 3 3 C4.32 3 5.64 3 7 3 C7 3.99 7 4.98 7 6 C4.125 5.6875 4.125 5.6875 1 5 C0.34 4.01 -0.32 3.02 -1 2 C-0.67 1.34 -0.34 0.68 0 0 Z " fill="#DBDBC4" transform="translate(612,182)"/>
<path d="M0 0 C1.98 0 3.96 0 6 0 C6 0.66 6 1.32 6 2 C7.65 2 9.3 2 11 2 C11 2.33 11 2.66 11 3 C6.71 3 2.42 3 -2 3 C-1.34 2.67 -0.68 2.34 0 2 C0 1.34 0 0.68 0 0 Z " fill="#EDEBD6" transform="translate(617,181)"/>
<path d="M0 0 C-0.33 0.99 -0.66 1.98 -1 3 C-4.5625 4.1875 -4.5625 4.1875 -8 5 C-8.66 4.34 -9.32 3.68 -10 3 C-3.375 0 -3.375 0 0 0 Z " fill="#A7B18C" transform="translate(968,958)"/>
<path d="M0 0 C0.66 0.99 1.32 1.98 2 3 C0.35 5.64 -1.3 8.28 -3 11 C-3.66 10.67 -4.32 10.34 -5 10 C-3.66511872 6.40608886 -2.03977277 3.24509304 0 0 Z " fill="#F4EEDA" transform="translate(949,946)"/>
<path d="M0 0 C0.12375 0.639375 0.2475 1.27875 0.375 1.9375 C0.684375 2.9584375 0.684375 2.9584375 1 4 C1.66 4.33 2.32 4.66 3 5 C0.69 6.65 -1.62 8.3 -4 10 C-2.8905928 6.51329166 -1.73662334 3.22515763 0 0 Z " fill="#EFF0E6" transform="translate(967,909)"/>
<path d="M0 0 C1 2 1 2 0.4375 3.875 C-1.54838116 6.81065041 -3.96508994 8.2296358 -7 10 C-7.66 10 -8.32 10 -9 10 C-9 9.34 -9 8.68 -9 8 C-7.5390625 6.81640625 -7.5390625 6.81640625 -5.625 5.5625 C-2.91409131 3.78311755 -1.87203979 2.80805969 0 0 Z " fill="#96A379" transform="translate(984,901)"/>
<path d="M0 0 C0 0.99 0 1.98 0 3 C-8.57142857 3.28571429 -8.57142857 3.28571429 -12 1 C-8.0186217 -0.3271261 -4.14954773 -0.06915913 0 0 Z " fill="#94A176" transform="translate(626,795)"/>
<path d="M0 0 C0.66 0.33 1.32 0.66 2 1 C2 1.66 2 2.32 2 3 C0.25 4.5078125 0.25 4.5078125 -2 6.125 C-2.7425 6.66382813 -3.485 7.20265625 -4.25 7.7578125 C-4.8275 8.16773438 -5.405 8.57765625 -6 9 C-6 6 -6 6 -4.6875 4.39453125 C-4.130625 3.87246094 -3.57375 3.35039062 -3 2.8125 C-2.443125 2.28269531 -1.88625 1.75289063 -1.3125 1.20703125 C-0.6628125 0.60955078 -0.6628125 0.60955078 0 0 Z " fill="#F0EEDC" transform="translate(355,308)"/>
<path d="M0 0 C0 0.33 0 0.66 0 1 C-1.65 1 -3.3 1 -5 1 C-4.67 2.32 -4.34 3.64 -4 5 C-5.98 5 -7.96 5 -10 5 C-7.62417533 -0.26075462 -5.61350876 -0.1220328 0 0 Z " fill="#94A175" transform="translate(581,189)"/>
<path d="M0 0 C-3.82517513 2.39073445 -7.59665524 2.55966552 -12 3 C-12 2.01 -12 1.02 -12 0 C-7.6835078 -0.76173392 -4.25566547 -1.16063604 0 0 Z " fill="#E1E1D0" transform="translate(586,187)"/>
<path d="M0 0 C0.66 0.33 1.32 0.66 2 1 C-0.97 3.97 -3.94 6.94 -7 10 C-7.66 9.67 -8.32 9.34 -9 9 C-6.31941902 5.42589203 -3.57410797 2.68058098 0 0 Z " fill="#96A37B" transform="translate(1006,874)"/>
<path d="M0 0 C1.875 1.25 1.875 1.25 2.875 4.25 C0.235 3.92 -2.405 3.59 -5.125 3.25 C-5.125 2.26 -5.125 1.27 -5.125 0.25 C-2.125 -0.75 -2.125 -0.75 0 0 Z " fill="#A5AE86" transform="translate(615.125,839.75)"/>
<path d="M0 0 C4 1 4 1 4 1 Z M-3 1 C-1.68 1.33 -0.36 1.66 1 2 C0.67 2.99 0.34 3.98 0 5 C-1.65 5.33 -3.3 5.66 -5 6 C-5 5.01 -5 4.02 -5 3 C-4.34 3 -3.68 3 -3 3 C-3 2.34 -3 1.68 -3 1 Z " fill="#A6AF8A" transform="translate(360,710)"/>
<path d="M0 0 C1.65 0 3.3 0 5 0 C5 0.99 5 1.98 5 3 C3 5 3 5 0.375 5.125 C-0.40875 5.08375 -1.1925 5.0425 -2 5 C-2 3 -2 3 0 1 C0 0.67 0 0.34 0 0 Z " fill="#BBC19F" transform="translate(545,149)"/>
<path d="M0 0 C3.63 0 7.26 0 11 0 C11 0.33 11 0.66 11 1 C9.02 1 7.04 1 5 1 C4.67 1.66 4.34 2.32 4 3 C1.9375 3.625 1.9375 3.625 0 4 C0 2.68 0 1.36 0 0 Z " fill="#DEDDC7" transform="translate(611,151)"/>
<path d="M0 0 C0.90105469 0.01804688 1.80210937 0.03609375 2.73046875 0.0546875 C3.41753906 0.07789063 4.10460937 0.10109375 4.8125 0.125 C2.14583333 1.45833333 -0.52083333 2.79166667 -3.1875 4.125 C-3.1875 3.465 -3.1875 2.805 -3.1875 2.125 C-4.8375 2.125 -6.4875 2.125 -8.1875 2.125 C-4.87379 -0.08414 -3.8428979 -0.09981553 0 0 Z " fill="#93A170" transform="translate(544.1875,149.875)"/>
<path d="M0 0 C-0.33 1.65 -0.66 3.3 -1 5 C-2.98 5 -4.96 5 -7 5 C-7 4.34 -7 3.68 -7 3 C-4.4385343 0.70351351 -3.52032428 0 0 0 Z " fill="#9DA783" transform="translate(611,186)"/>
<path d="M0 0 C1.32 0 2.64 0 4 0 C4.33 0.66 4.66 1.32 5 2 C6.32 2.66 7.64 3.32 9 4 C5.37 4 1.74 4 -2 4 C-1.34 2.68 -0.68 1.36 0 0 Z " fill="#9B9F77" transform="translate(645,177)"/>
<path d="M0 0 C0 0.66 0 1.32 0 2 C1.65 2.33 3.3 2.66 5 3 C5 3.33 5 3.66 5 4 C1.7 4 -1.6 4 -5 4 C-5 3.01 -5 2.02 -5 1 C-2 0 -2 0 0 0 Z " fill="#A7AE89" transform="translate(619,169)"/>
<path d="M0 0 C4.6875 3.61328125 4.6875 3.61328125 6 5 C6 5.99 6 6.98 6 8 C2.83884224 6.63016497 2.0072908 6.0109362 0 3 C0 2.01 0 1.02 0 0 Z " fill="#94A176" transform="translate(696,894)"/>
<path d="M0 0 C0.99 0.33 1.98 0.66 3 1 C1.35 2.65 -0.3 4.3 -2 6 C-2.99 5.67 -3.98 5.34 -5 5 C-3.35 3.35 -1.7 1.7 0 0 Z " fill="#F0EEDC" transform="translate(338,325)"/>
<path d="M0 0 C1.98 0 3.96 0 6 0 C6.33 0.66 6.66 1.32 7 2 C6.01 2 5.02 2 4 2 C4 2.66 4 3.32 4 4 C5.32 4.33 6.64 4.66 8 5 C6.35 5 4.7 5 3 5 C2.87625 4.360625 2.7525 3.72125 2.625 3.0625 C2.315625 2.0415625 2.315625 2.0415625 2 1 C1.34 0.67 0.68 0.34 0 0 Z " fill="#FCFAEB" transform="translate(624,187)"/>
<path d="M0 0 C2.64 0 5.28 0 8 0 C8 0.33 8 0.66 8 1 C6.35 1 4.7 1 3 1 C3 1.66 3 2.32 3 3 C0.03 3 -2.94 3 -6 3 C-6 2.67 -6 2.34 -6 2 C-4.02 2 -2.04 2 0 2 C0 1.34 0 0.68 0 0 Z " fill="#EBEBD8" transform="translate(572,144)"/>
<path d="M0 0 C0.33 0.66 0.66 1.32 1 2 C1.99 2.33 2.98 2.66 4 3 C2.71254964 3.38922918 1.41980403 3.76098036 0.125 4.125 C-0.95394531 4.43824219 -0.95394531 4.43824219 -2.0546875 4.7578125 C-2.69664062 4.83773437 -3.33859375 4.91765625 -4 5 C-4.66 4.34 -5.32 3.68 -6 3 C-5.195625 2.690625 -4.39125 2.38125 -3.5625 2.0625 C-1.10919595 1.23664655 -1.10919595 1.23664655 0 0 Z " fill="#99A377" transform="translate(538,198)"/>
<path d="M0 0 C2.31 0 4.62 0 7 0 C7 0.66 7 1.32 7 2 C4.69 2.33 2.38 2.66 0 3 C0 2.01 0 1.02 0 0 Z " fill="#CDCBB0" transform="translate(647,172)"/>
<path d="M0 0 C0.66 0.33 1.32 0.66 2 1 C0.37660195 2.70884005 -1.29319053 4.37446717 -3 6 C-3.66 6 -4.32 6 -5 6 C-4.75 4.125 -4.75 4.125 -4 2 C-2.0625 0.6875 -2.0625 0.6875 0 0 Z " fill="#95A47A" transform="translate(371,292)"/>
<path d="M0 0 C2.31 0 4.62 0 7 0 C7.33 0.99 7.66 1.98 8 3 C5.36 2.67 2.72 2.34 0 2 C0 1.34 0 0.68 0 0 Z " fill="#CFD1B6" transform="translate(620,176)"/>
</svg>
